<svg xmlns="http://www.w3.org/2000/svg" width="63.248" height="56.393" viewBox="0 0 63.248 56.393">
  <g id="gy-arrow-02" transform="translate(84.248 72.108) rotate(180)">
    <path id="Path_181" data-name="Path 181" d="M21.1,43.912c.04,0,.316-.475.356-.475,30.536,0,37.656-8.7,35.441-20.41-.989-5.34-6.685-8.544-5.577-2.729-1.78-1.028-1.384-2.294-.949-3.6-6.171,1.7-3.164,8.386.158,4.588.435.989-.277,1.543-.514,2.334.514-.435.593-.04,1.068-.316-.316.356-.119.633-.593.949,1.305-.4,1.5.672,1.7,1.266-3.164-1.464-4.944.791-6.764-2.967-1.859-3.758,3.56-9.533,8.742-5.419C61.6,22.789,68.8,46.918,21.1,43.912Z" transform="translate(-0.06 0)" fill="#005d53" fill-rule="evenodd"/>
    <path id="Path_182" data-name="Path 182" d="M54.068,113.383c-5.182,4.114-10.6-1.661-8.742-5.419,1.82-3.8,3.639-1.5,6.764-2.967-.2.593-.4,1.661-1.7,1.266.514.356.316.593.593.949-.514-.277-.554.119-1.068-.316.2.791.949,1.345.514,2.334-3.323-3.8-6.329,2.848-.158,4.588-.4-1.305-.791-2.571.949-3.6-1.108,5.815,4.509,2.611,5.577-2.729,2.215-11.115-4.9-20.41-35.441-20.41-.04,0-.316-.475-.356-.475C68.743,83.6,61.544,107.688,54.068,113.383Z" transform="translate(0 -42.693)" fill="#005d53" fill-rule="evenodd"/>
    <circle id="Ellipse_13" data-name="Ellipse 13" cx="2.334" cy="2.334" r="2.334" transform="translate(59.012 41.578)" fill="#005d53"/>
    <circle id="Ellipse_14" data-name="Ellipse 14" cx="2.334" cy="2.334" r="2.334" transform="translate(69.296 41.578)" fill="#005d53"/>
    <circle id="Ellipse_15" data-name="Ellipse 15" cx="2.334" cy="2.334" r="2.334" transform="translate(79.58 41.578)" fill="#005d53"/>
  </g>
</svg>
