<?xml version="1.0" encoding="UTF-8"?>
<svg id="Layer_2" data-name="Layer 2" xmlns="http://www.w3.org/2000/svg" viewBox="0 0 1964.1 460.45">
  <defs>
    <style>
      .cls-1 {
        fill: #fff;
        stroke-width: 0px;
      }
    </style>
  </defs>
  <g id="Layer_2-2" data-name="Layer 2">
    <g>
      <path class="cls-1" d="m112.76,359.44c.83,2.22,1.71,4.41,2.64,6.59,8.73-5.18,16.59-11.45,23.41-18.77,19.51-20.92,29.82-49.59,29.82-82.91,0-28.8-10.45-52.71-20.97-75.71-1.72,1.9-3.4,3.84-5.04,5.81,10.1,22.18,19.01,43.68,19.01,69.89,0,42.74-17.88,76.19-48.86,95.09Z"/>
      <path class="cls-1" d="m68.57,297.2c-7.75-6.38-18.99-7.72-27.05-7.72-5.05,0-8.62.52-8.77.55l-3.12.47.14,3.16c.04.95,1.2,23.31,13.93,33.78,11.03,9.08,31.48,9.79,37.49,9.79.66,0,1.02-.01,1.02-.01l4.03-.11-.67-3.98c-.18-1.04-4.46-25.6-16.99-35.92Zm-20.43,24.82c-7.77-6.39-10.29-19.32-11.06-25.4,1.23-.08,2.74-.15,4.44-.15,6.92,0,16.45,1.06,22.6,6.12,7.77,6.4,11.97,20.5,13.66,27.53-7.13-.3-21.85-1.7-29.64-8.11Z"/>
      <path class="cls-1" d="m166.75,339.72l.62,3.1,3.14-.3c.9-.09,22.18-2.24,31.59-14.9,9.26-12.46,7.59-36.19,7.51-37.19l-.3-4.03-3.94.87c-.98.22-24.19,5.46-33.45,17.92-9.4,12.66-5.34,33.65-5.17,34.53Zm10.78-30.36c5.62-7.56,18.57-12.19,25.23-14.16.04,6.94-.66,20.68-6.28,28.24-5.62,7.56-17.56,10.57-23.35,11.61-.67-5.84-1.24-18.11,4.4-25.7Z"/>
      <path class="cls-1" d="m39.18,235.13c-13.3,15.01-10.4,42.23-10.28,43.39l.35,3.14,3.16-.03c1.16-.01,28.53-.43,41.82-15.45,13.13-14.83,13.6-45.41,13.61-46.7l.04-4.04-4,.53c-1.28.17-31.58,4.33-44.71,19.16Zm29.82,26.4c-8.78,9.92-26.12,12.33-33.36,12.91-.31-7.25-.03-24.72,8.78-34.67,8.77-9.91,27.8-14.53,36.23-16.16-.59,8.56-2.87,27.99-11.66,37.92Z"/>
      <path class="cls-1" d="m118.83,185.23l.81-3.05c.33-1.25,7.98-30.91-4.25-49.65-12.22-18.72-43.06-24.08-44.37-24.3l-3.23-.54-.76,3.18c-.3,1.27-7.25,31.28,4.95,49.98,12.23,18.74,42.45,23.69,43.73,23.89l3.12.49Zm-5.25-8.06c-7.74-1.74-27.34-7.3-35.73-20.15-8.38-12.85-6.01-33.23-4.65-41.19,7.95,1.86,27.94,7.67,36.33,20.52,8.39,12.85,5.57,33.03,4.05,40.82Z"/>
      <path class="cls-1" d="m193.18,244.7l2.61-3.08c.8-.95,19.62-23.4,19.4-42.4-.23-19.25-19.81-36.72-20.65-37.46l-2.37-2.09-2.32,2.14c-.82.75-19.99,18.69-19.76,37.93.22,19,19.58,41.01,20.4,41.94l2.68,3.02Zm-.89-75.4c4.91,5,15.75,17.43,15.9,29.99.15,12.51-10.18,27.83-15.14,34.47-5.12-6.51-15.8-21.57-15.95-34.11-.15-12.53,10.4-25.24,15.19-30.36Z"/>
      <path class="cls-1" d="m110.36,327.84l1.19,4.17,3.82-2.04c.97-.52,23.83-12.85,30.6-28.81,6.86-16.19-2.01-37.56-2.39-38.46l-1.32-3.12-3.16,1.22c-.91.35-22.44,8.79-29.29,24.98-6.77,15.97.25,41,.55,42.06Zm5.89-39.33c4.26-10.07,16.27-16.9,22.1-19.72,2.03,6.16,5.46,19.53,1.18,29.64-4.26,10.06-16.99,18.98-23.51,23.04-1.61-7.52-4.04-22.89.23-32.96Z"/>
      <path class="cls-1" d="m164.04,140.49l3.14-.37c1.03-.12,25.34-3.12,35.76-17.78,10.28-14.46,7.77-41.67,7.66-42.82l-.39-4.02-3.92.95c-1.12.27-27.63,6.86-37.91,21.33-10.42,14.67-5.25,38.61-5.02,39.62l.69,3.08Zm10.04-38.65c6.6-9.29,22.32-15.09,29.79-17.42.27,7.81-.03,24.56-6.64,33.86-6.6,9.29-21.1,13.07-27.6,14.34-.94-6.56-2.15-21.49,4.46-30.78Z"/>
      <path class="cls-1" d="m171.58,56.39c1.73.39,3.62.59,5.63.59,12.47,0,26.65-7.54,27.24-7.86l3.56-1.91-2.39-3.25c-.53-.72-13.12-17.63-26.59-20.66-1.64-.37-3.38-.56-5.18-.56-12.17,0-24.25,8.44-24.76,8.8l-2.58,1.82,1.55,2.75c.39.7,9.81,17.19,23.52,20.27Zm2.27-26.64c1.29,0,2.52.13,3.65.38,7.73,1.74,15.74,9.96,19.79,14.66-4.71,2.08-12.93,5.18-20.07,5.18-1.49,0-2.87-.14-4.1-.42-7.72-1.74-14.16-9.73-17.15-14.07,3.85-2.22,11.05-5.75,17.88-5.75Z"/>
      <path class="cls-1" d="m43.68,222.17l2.79,1.48,1.76-2.62c.45-.67,10.93-16.5,7.52-30.13-3.35-13.4-20.56-25.58-21.29-26.09l-3.31-2.32-1.82,3.6c-.4.8-9.84,19.65-6.48,33.04,3.42,13.63,20.12,22.65,20.83,23.03Zm-9.85-49c4.8,3.94,13.21,11.75,15.13,19.44,1.92,7.68-2.33,17.04-4.85,21.67-4.98-3.27-12.66-9.62-14.47-16.83-1.92-7.69,1.82-18.54,4.19-24.27Z"/>
      <path class="cls-1" d="m383.94,67.47C341.46,23.96,284.97,0,224.88,0S108.3,23.96,65.82,67.47C23.38,110.95,0,168.75,0,230.23s23.38,119.27,65.82,162.75c42.48,43.51,98.97,67.47,159.06,67.47s116.58-23.96,159.06-67.47c42.45-43.48,65.82-101.28,65.82-162.75s-23.38-119.27-65.82-162.75ZM69.24,381.92c11.35-1.68,22.01-4.59,31.82-8.69-.92-2.13-1.79-4.29-2.63-6.46-10.51,4.41-22.17,7.39-34.82,8.84-33.35-38.81-53.61-89.71-53.61-145.37,0-35,8.02-68.1,22.25-97.52,17.09,35.19,43.73,67.73,75.5,92.07,15.73,12.05,32.11,21.62,48.82,28.62-.27-2.72-.65-5.45-1.13-8.2-53.16-23.72-97.06-71.99-119.14-120.3l-.12.05c7.12-13.36,15.57-25.88,25.14-37.38,19.92,10.48,36.93,15.79,50.68,15.79,1.15,0,2.27-.04,3.38-.11,26.59-1.79,33.82-17.97,39.42-35.84l.98-3.11-3.04-1.19c-16.9-6.62-33.44-6.73-46.56-.32-10.68,5.22-18.52,14.62-22.75,27.28-5.48-2.12-11.29-4.77-17.42-7.94C104.39,38.89,159.29,11.35,220.38,10.06v46.51c-32.76,2.2-60.62,18.25-76.88,44.46-14.47,23.34-17.23,51.03-7.94,77.13,1.78-1.97,3.6-3.9,5.46-5.8-7.15-23.06-4.26-47.18,8.43-67.65,14.97-24.14,40.65-38.96,70.93-41.14v66.12c-36.57,11.95-68.17,33.88-91.42,63.5-5.5,7.01-10.43,14.33-14.77,21.91,1.9,1.46,3.84,2.87,5.79,4.25,21.25-37.52,56.59-67.37,100.4-82.27v123.17c-16.4-.31-32.46-3.31-47.89-8.44.25,2.53.42,5.05.52,7.58,15.69,4.92,31.57,7.57,47.37,7.86v183.13c-15.99-.34-31.54-2.48-46.5-6.22-4.28-2.97-8.4-6.09-12.36-9.36-7.32-7.13-9.06-18.75-9.87-25.98,1.42.07,3.14.13,5.09.13h0c11.09,0,26.54-1.77,37.21-10.18,18.57-14.64,16.75-44.4,16.66-45.66l-.2-2.88-2.86-.35c-.12-.02-3.02-.37-7.48-.37-9.43,0-27.12,1.63-39.59,12.54-17.07,14.93-16.14,41.97-16.09,43.11l.12,2.97h.02c.37,3.41.88,8.01,2.11,12.9-31.9-33.02-49.65-76.7-48.66-122.39.5-22.74,5.65-44.69,14.7-64.85-2-1.37-3.97-2.78-5.92-4.23-9.87,21.58-15.24,44.88-15.77,68.93-1.17,53.67,22.48,104.65,64.07,140.02-32.94-11.63-62.28-31.25-85.81-56.59Zm20.76-289.52c3.65-11.03,10.11-18.88,19.23-23.33,10.4-5.08,24.05-5.26,37.85-.58-5,15.06-11.38,26.37-32.18,27.77-7.14.48-15.46-.81-24.9-3.86Zm61.41,309.4c.29-7.03,2.18-24.42,13.67-34.48,10.75-9.4,26.53-10.81,34.98-10.81,1.39,0,2.61.04,3.61.09-.06,7.43-1.49,26.75-14.07,36.67-9.58,7.55-24.71,8.68-32.88,8.68h0c-2.1,0-3.91-.07-5.32-.16Zm79.97,48.55v-89.65h153.59c2.78-3.58,5.44-7.25,7.98-11h-161.57v-62.3h153.74v-11h-153.74v-68.7h179.74v-11h-179.74V10.11c115.49,3.54,208.38,100.91,208.38,220.12s-92.89,216.58-208.38,220.12Z"/>
    </g>
    <g>
      <rect class="cls-1" x="618.76" y="58.18" width="18.89" height="134.9"/>
      <polygon class="cls-1" points="690.83 88.82 767.73 193.08 786.8 193.08 786.8 58.18 767.73 58.18 767.73 161.48 691.41 58.18 671.94 58.18 671.94 193.08 690.83 193.08 690.83 88.82"/>
      <path class="cls-1" d="m907.15,176.41c3.66-5.84,5.49-12.43,5.49-19.75,0-8.48-3.44-16.28-10.31-23.42-6.87-7.13-16.61-12.24-29.2-15.32l-15.61-3.85c-6.17-1.54-11.08-3.82-14.74-6.84-3.66-3.02-5.49-7.35-5.49-13.01,0-6.68,2.34-11.95,7.03-15.8,4.69-3.85,11.08-5.78,19.18-5.78s14.19,1.77,19.46,5.3c5.27,3.54,8.99,8.19,11.18,13.97l18.31-6.17c-1.8-5.4-4.79-10.34-8.96-14.84-4.18-4.5-9.48-8.12-15.9-10.89-6.43-2.76-14-4.14-22.74-4.14-15.16,0-26.76,3.47-34.79,10.41-8.03,6.94-12.04,16.57-12.04,28.91,0,6.68,1.48,12.4,4.43,17.15,2.95,4.75,6.97,8.67,12.04,11.76,5.07,3.08,10.7,5.46,16.86,7.13l15.61,4.05c7.83,1.93,14.13,4.72,18.89,8.38,4.75,3.66,7.13,8.38,7.13,14.16,0,6.3-2.73,11.34-8.19,15.13-5.46,3.79-12.95,5.68-22.45,5.68-7.84-.13-14.45-2.12-19.85-5.97-5.4-3.85-9.06-8.41-10.98-13.68l-18.31,5.97c1.16,3.98,3.15,7.78,5.97,11.37,2.82,3.6,6.39,6.84,10.7,9.73,4.3,2.89,9.38,5.17,15.22,6.84,5.84,1.67,12.36,2.5,19.56,2.5,10.41,0,19.17-1.7,26.31-5.11,7.13-3.4,12.53-8.03,16.19-13.88Z"/>
      <path class="cls-1" d="m957.93,144.9h30.26c8.22,0,15.51-1.86,21.87-5.59,6.36-3.73,11.34-8.87,14.94-15.42,3.6-6.55,5.4-14,5.4-22.36s-1.96-16.15-5.88-22.64c-3.92-6.49-9.32-11.56-16.19-15.22-6.88-3.66-14.81-5.49-23.8-5.49h-45.48v134.9h18.89v-48.18Zm0-69.38h26.4c7.83,0,14.29,2.38,19.37,7.13,5.07,4.75,7.61,11.05,7.61,18.89s-2.19,13.78-6.55,18.6c-4.37,4.82-9.96,7.23-16.77,7.23h-30.06v-51.84Z"/>
      <rect class="cls-1" x="1051.98" y="58.18" width="18.89" height="134.9"/>
      <path class="cls-1" d="m1124.05,141.43h24.86c.54,0,1.07-.03,1.6-.04l30,51.69h21.39l-32.55-55.29c1.3-.51,2.59-1.05,3.84-1.66,7.19-3.53,12.88-8.45,17.06-14.74,4.17-6.29,6.26-13.49,6.26-21.58s-1.96-15.45-5.88-21.68c-3.92-6.23-9.32-11.11-16.19-14.65-6.88-3.53-14.81-5.3-23.8-5.3h-45.48v134.9h18.89v-51.65Zm0-65.91h26.02c7.96,0,14.45,2.25,19.46,6.75,5.01,4.5,7.52,10.34,7.52,17.54,0,4.63-1.13,8.77-3.37,12.43-2.25,3.66-5.2,6.55-8.87,8.67-3.66,2.12-7.81,3.18-12.43,3.18h-28.33v-48.57Z"/>
      <polygon class="cls-1" points="1308.29 175.74 1245.66 175.74 1245.66 132.57 1301.74 132.57 1301.74 115.61 1245.66 115.61 1245.66 75.52 1307.9 75.52 1307.9 58.18 1226.77 58.18 1226.77 193.08 1308.29 193.08 1308.29 175.74"/>
      <path class="cls-1" d="m1439.91,160.51c5.65-10.15,8.48-21.78,8.48-34.88s-2.83-24.92-8.48-35.07c-5.66-10.15-13.46-18.08-23.42-23.8-9.96-5.71-21.36-8.58-34.21-8.58h-41.63v134.9h41.63c12.85,0,24.25-2.89,34.21-8.67,9.96-5.78,17.76-13.75,23.42-23.9Zm-14.36-15.42c-2.38,6.04-5.72,11.34-10.02,15.9-4.31,4.56-9.28,8.09-14.94,10.6-5.66,2.51-11.76,3.76-18.31,3.76h-22.74v-99.44h22.74c6.55,0,12.65,1.25,18.31,3.76,5.65,2.51,10.63,6.04,14.94,10.6,4.3,4.56,7.64,9.86,10.02,15.9,2.38,6.04,3.57,12.53,3.57,19.46s-1.19,13.43-3.57,19.46Z"/>
      <polygon class="cls-1" points="637.64 348.57 693.73 348.57 693.73 331.61 637.64 331.61 637.64 291.52 699.89 291.52 699.89 274.18 618.76 274.18 618.76 409.08 700.28 409.08 700.28 391.74 637.64 391.74 637.64 348.57"/>
      <path class="cls-1" d="m790.85,274.18h-19.27l-54.35,134.9h20.24l14.26-36.04h59.94l14.26,36.04h20.24l-54.35-134.9h-.96Zm-32.41,81.91l23.26-58.77,23.26,58.77h-46.51Z"/>
      <path class="cls-1" d="m933.08,352.13c7.19-3.53,12.88-8.45,17.06-14.74,4.17-6.29,6.26-13.49,6.26-21.58s-1.96-15.45-5.88-21.68c-3.92-6.23-9.32-11.11-16.19-14.65-6.88-3.53-14.81-5.3-23.8-5.3h-45.48v134.9h18.89v-51.65h24.86c.54,0,1.07-.03,1.6-.04l30,51.69h21.39l-32.55-55.29c1.3-.51,2.59-1.05,3.84-1.66Zm-49.14-60.61h26.02c7.96,0,14.45,2.25,19.46,6.75,5.01,4.5,7.52,10.34,7.52,17.54,0,4.63-1.13,8.77-3.37,12.43-2.25,3.66-5.2,6.55-8.87,8.67-3.66,2.12-7.81,3.18-12.43,3.18h-28.33v-48.57Z"/>
      <polygon class="cls-1" points="970.66 291.52 1012.86 291.52 1012.86 409.08 1031.94 409.08 1031.94 291.52 1074.15 291.52 1074.15 274.18 970.66 274.18 970.66 291.52"/>
      <polygon class="cls-1" points="1185.15 331.03 1112.49 331.03 1112.49 274.18 1093.61 274.18 1093.61 409.08 1112.49 409.08 1112.49 348.38 1185.15 348.38 1185.15 409.08 1204.03 409.08 1204.03 274.18 1185.15 274.18 1185.15 331.03"/>
      <path class="cls-1" d="m1361.19,282.76c-9.96-5.71-21.36-8.58-34.21-8.58h-41.63v134.9h41.63c12.85,0,24.25-2.89,34.21-8.67,9.96-5.78,17.76-13.75,23.42-23.9,5.65-10.15,8.48-21.78,8.48-34.88s-2.83-24.92-8.48-35.07c-5.66-10.15-13.46-18.08-23.42-23.8Zm9.06,78.34c-2.38,6.04-5.72,11.34-10.02,15.9-4.31,4.56-9.28,8.09-14.94,10.6-5.66,2.51-11.76,3.76-18.31,3.76h-22.74v-99.44h22.74c6.55,0,12.65,1.25,18.31,3.76,5.65,2.51,10.63,6.04,14.94,10.6,4.3,4.56,7.64,9.86,10.02,15.9,2.38,6.04,3.57,12.53,3.57,19.46s-1.19,13.43-3.57,19.46Z"/>
      <polygon class="cls-1" points="1437.41 348.57 1493.49 348.57 1493.49 331.61 1437.41 331.61 1437.41 291.52 1499.66 291.52 1499.66 274.18 1418.52 274.18 1418.52 409.08 1500.04 409.08 1500.04 391.74 1437.41 391.74 1437.41 348.57"/>
      <path class="cls-1" d="m1584.45,333.92l-15.61-3.85c-6.17-1.54-11.08-3.82-14.74-6.84-3.66-3.02-5.49-7.35-5.49-13.01,0-6.68,2.34-11.95,7.03-15.8,4.69-3.85,11.08-5.78,19.18-5.78s14.19,1.77,19.46,5.3c5.27,3.54,8.99,8.19,11.18,13.97l18.31-6.17c-1.8-5.4-4.79-10.34-8.96-14.84-4.18-4.5-9.48-8.12-15.9-10.89-6.43-2.76-14-4.14-22.74-4.14-15.16,0-26.76,3.47-34.79,10.41-8.03,6.94-12.04,16.57-12.04,28.91,0,6.68,1.48,12.4,4.43,17.15,2.95,4.75,6.97,8.67,12.04,11.76,5.07,3.08,10.7,5.46,16.86,7.13l15.61,4.05c7.83,1.93,14.13,4.72,18.89,8.38,4.75,3.66,7.13,8.38,7.13,14.16,0,6.3-2.73,11.34-8.19,15.13-5.46,3.79-12.95,5.68-22.45,5.68-7.84-.13-14.45-2.12-19.85-5.97-5.4-3.85-9.06-8.41-10.98-13.68l-18.31,5.97c1.16,3.98,3.15,7.78,5.97,11.37,2.82,3.6,6.39,6.84,10.7,9.73,4.3,2.89,9.38,5.17,15.22,6.84,5.84,1.67,12.36,2.5,19.56,2.5,10.41,0,19.17-1.7,26.31-5.11,7.13-3.4,12.53-8.03,16.19-13.88,3.66-5.84,5.49-12.43,5.49-19.75,0-8.48-3.44-16.28-10.31-23.42-6.87-7.13-16.61-12.24-29.2-15.32Z"/>
      <rect class="cls-1" x="1650.36" y="274.18" width="18.89" height="134.9"/>
      <path class="cls-1" d="m1774.66,355.12h32.73c-.17,7.49-1.98,14.11-5.46,19.85-3.66,6.04-8.67,10.73-15.03,14.07-6.36,3.34-13.59,5.01-21.68,5.01-10.02,0-18.92-2.25-26.69-6.75-7.77-4.5-13.81-10.66-18.12-18.5-4.31-7.83-6.46-16.83-6.46-26.98s2.18-19.53,6.55-27.37c4.37-7.83,10.37-14,18.02-18.5,7.64-4.5,16.41-6.75,26.31-6.75,5.01,0,9.99.87,14.94,2.6,4.94,1.73,9.47,4.14,13.59,7.23,4.11,3.08,7.45,6.62,10.02,10.6l15.22-10.02c-3.47-5.4-8-10.18-13.59-14.36-5.59-4.17-11.82-7.45-18.69-9.83-6.88-2.38-14.04-3.57-21.49-3.57-13.62,0-25.73,2.99-36.33,8.96-10.6,5.97-18.89,14.2-24.86,24.67-5.97,10.47-8.96,22.58-8.96,36.33s2.99,25.47,8.96,35.94c5.97,10.47,14.26,18.69,24.86,24.67,10.6,5.97,22.71,8.96,36.33,8.96,11.95,0,22.48-2.44,31.61-7.32,9.12-4.88,16.29-11.76,21.49-20.62,5.06-8.62,7.65-18.71,7.79-30.25h.01v-13.88h-51.07v15.8Z"/>
      <polygon class="cls-1" points="1945.02 274.18 1945.02 377.48 1868.7 274.18 1849.24 274.18 1849.24 409.08 1868.13 409.08 1868.13 304.82 1945.02 409.08 1964.1 409.08 1964.1 274.18 1945.02 274.18"/>
    </g>
  </g>
</svg>