<?xml version="1.0" encoding="UTF-8"?>
<svg id="Layer_2" data-name="Layer 2" xmlns="http://www.w3.org/2000/svg" viewBox="0 0 1969.44 460.45">
  <defs>
    <style>
      .cls-1 {
        stroke-width: 0px;
      }
    </style>
  </defs>
  <g id="Layer_2-2" data-name="Layer 2">
    <g id="Layer_2-2" data-name="Layer 2-2">
      <g>
        <rect class="cls-1" x="624.11" y="58.18" width="18.89" height="134.9"/>
        <polygon class="cls-1" points="696.18 88.82 773.07 193.08 792.15 193.08 792.15 58.18 773.07 58.18 773.07 161.48 696.75 58.18 677.29 58.18 677.29 193.08 696.18 193.08 696.18 88.82"/>
        <path class="cls-1" d="m912.5,176.41c3.66-5.84,5.49-12.43,5.49-19.75,0-8.48-3.44-16.28-10.31-23.42-6.87-7.13-16.61-12.24-29.2-15.32l-15.61-3.85c-6.17-1.54-11.08-3.82-14.74-6.84s-5.49-7.35-5.49-13.01c0-6.68,2.34-11.95,7.03-15.8,4.69-3.85,11.08-5.78,19.18-5.78s14.19,1.77,19.46,5.3c5.27,3.54,8.99,8.19,11.18,13.97l18.31-6.17c-1.8-5.4-4.79-10.34-8.96-14.84-4.18-4.5-9.48-8.12-15.9-10.89-6.43-2.76-14-4.14-22.74-4.14-15.16,0-26.76,3.47-34.79,10.41-8.03,6.94-12.04,16.57-12.04,28.91,0,6.68,1.48,12.4,4.43,17.15s6.97,8.67,12.04,11.76c5.07,3.08,10.7,5.46,16.86,7.13l15.61,4.05c7.83,1.93,14.13,4.72,18.89,8.38,4.75,3.66,7.13,8.38,7.13,14.16,0,6.3-2.73,11.34-8.19,15.13-5.46,3.79-12.95,5.68-22.45,5.68-7.84-.13-14.45-2.12-19.85-5.97-5.4-3.85-9.06-8.41-10.98-13.68l-18.31,5.97c1.16,3.98,3.15,7.78,5.97,11.37,2.82,3.6,6.39,6.84,10.7,9.73,4.3,2.89,9.38,5.17,15.22,6.84,5.84,1.67,12.36,2.5,19.56,2.5,10.41,0,19.17-1.7,26.31-5.11,7.13-3.4,12.53-8.03,16.19-13.88h0Z"/>
        <path class="cls-1" d="m963.28,144.9h30.26c8.22,0,15.51-1.86,21.87-5.59s11.34-8.87,14.94-15.42,5.4-14,5.4-22.36-1.96-16.15-5.88-22.64c-3.92-6.49-9.32-11.56-16.19-15.22-6.88-3.66-14.81-5.49-23.8-5.49h-45.48v134.9h18.89v-48.18h-.01Zm0-69.38h26.4c7.83,0,14.29,2.38,19.37,7.13,5.07,4.75,7.61,11.05,7.61,18.89s-2.19,13.78-6.55,18.6c-4.37,4.82-9.96,7.23-16.77,7.23h-30.06v-51.84h0Z"/>
        <rect class="cls-1" x="1057.32" y="58.18" width="18.89" height="134.9"/>
        <path class="cls-1" d="m1129.4,141.43h24.86c.54,0,1.07-.03,1.6-.04l30,51.69h21.39l-32.55-55.29c1.3-.51,2.59-1.05,3.84-1.66,7.19-3.53,12.88-8.45,17.06-14.74,4.17-6.29,6.26-13.49,6.26-21.58s-1.96-15.45-5.88-21.68-9.32-11.11-16.19-14.65c-6.88-3.53-14.81-5.3-23.8-5.3h-45.48v134.9h18.89v-51.65Zm0-65.91h26.02c7.96,0,14.45,2.25,19.46,6.75s7.52,10.34,7.52,17.54c0,4.63-1.13,8.77-3.37,12.43-2.25,3.66-5.2,6.55-8.87,8.67-3.66,2.12-7.81,3.18-12.43,3.18h-28.33v-48.57Z"/>
        <polygon class="cls-1" points="1313.64 175.74 1251.01 175.74 1251.01 132.57 1307.09 132.57 1307.09 115.61 1251.01 115.61 1251.01 75.52 1313.25 75.52 1313.25 58.18 1232.12 58.18 1232.12 193.08 1313.64 193.08 1313.64 175.74"/>
        <path class="cls-1" d="m1445.26,160.51c5.65-10.15,8.48-21.78,8.48-34.88s-2.83-24.92-8.48-35.07c-5.66-10.15-13.46-18.08-23.42-23.8-9.96-5.71-21.36-8.58-34.21-8.58h-41.63v134.9h41.63c12.85,0,24.25-2.89,34.21-8.67s17.76-13.75,23.42-23.9Zm-14.36-15.42c-2.38,6.04-5.72,11.34-10.02,15.9-4.31,4.56-9.28,8.09-14.94,10.6-5.66,2.51-11.76,3.76-18.31,3.76h-22.74v-99.44h22.74c6.55,0,12.65,1.25,18.31,3.76,5.65,2.51,10.63,6.04,14.94,10.6,4.3,4.56,7.64,9.86,10.02,15.9s3.57,12.53,3.57,19.46-1.19,13.43-3.57,19.46Z"/>
        <polygon class="cls-1" points="642.99 348.57 699.07 348.57 699.07 331.61 642.99 331.61 642.99 291.52 705.24 291.52 705.24 274.18 624.11 274.18 624.11 409.08 705.63 409.08 705.63 391.74 642.99 391.74 642.99 348.57"/>
        <path class="cls-1" d="m796.19,274.18h-19.27l-54.35,134.9h20.24l14.26-36.04h59.94l14.26,36.04h20.24l-54.35-134.9h-.97Zm-32.41,81.91l23.26-58.77,23.26,58.77h-46.52Z"/>
        <path class="cls-1" d="m938.43,352.13c7.19-3.53,12.88-8.45,17.06-14.74,4.17-6.29,6.26-13.49,6.26-21.58s-1.96-15.45-5.88-21.68c-3.92-6.23-9.32-11.11-16.19-14.65-6.88-3.53-14.81-5.3-23.8-5.3h-45.48v134.9h18.89v-51.65h24.86c.54,0,1.07-.03,1.6-.04l30,51.69h21.39l-32.55-55.29c1.3-.51,2.59-1.05,3.84-1.66h0Zm-49.14-60.61h26.02c7.96,0,14.45,2.25,19.46,6.75s7.52,10.34,7.52,17.54c0,4.63-1.13,8.77-3.37,12.43-2.25,3.66-5.2,6.55-8.87,8.67-3.66,2.12-7.81,3.18-12.43,3.18h-28.33v-48.57h0Z"/>
        <polygon class="cls-1" points="976 291.52 1018.2 291.52 1018.2 409.08 1037.28 409.08 1037.28 291.52 1079.5 291.52 1079.5 274.18 976 274.18 976 291.52"/>
        <polygon class="cls-1" points="1190.5 331.03 1117.84 331.03 1117.84 274.18 1098.95 274.18 1098.95 409.08 1117.84 409.08 1117.84 348.38 1190.5 348.38 1190.5 409.08 1209.38 409.08 1209.38 274.18 1190.5 274.18 1190.5 331.03"/>
        <path class="cls-1" d="m1366.53,282.76c-9.96-5.71-21.36-8.58-34.21-8.58h-41.63v134.9h41.63c12.85,0,24.25-2.89,34.21-8.67s17.76-13.75,23.42-23.9c5.65-10.15,8.48-21.78,8.48-34.88s-2.83-24.92-8.48-35.07c-5.66-10.15-13.46-18.08-23.42-23.8Zm9.06,78.34c-2.38,6.04-5.72,11.34-10.02,15.9-4.31,4.56-9.28,8.09-14.94,10.6-5.66,2.51-11.76,3.76-18.31,3.76h-22.74v-99.44h22.74c6.55,0,12.65,1.25,18.31,3.76,5.65,2.51,10.63,6.04,14.94,10.6,4.3,4.56,7.64,9.86,10.02,15.9s3.57,12.53,3.57,19.46-1.19,13.43-3.57,19.46Z"/>
        <polygon class="cls-1" points="1442.76 348.57 1498.84 348.57 1498.84 331.61 1442.76 331.61 1442.76 291.52 1505.01 291.52 1505.01 274.18 1423.87 274.18 1423.87 409.08 1505.39 409.08 1505.39 391.74 1442.76 391.74 1442.76 348.57"/>
        <path class="cls-1" d="m1589.79,333.92l-15.61-3.85c-6.17-1.54-11.08-3.82-14.74-6.84s-5.49-7.35-5.49-13.01c0-6.68,2.34-11.95,7.03-15.8,4.69-3.85,11.08-5.78,19.18-5.78s14.19,1.77,19.46,5.3c5.27,3.54,8.99,8.19,11.18,13.97l18.31-6.17c-1.8-5.4-4.79-10.34-8.96-14.84-4.18-4.5-9.48-8.12-15.9-10.89-6.43-2.76-14-4.14-22.74-4.14-15.16,0-26.76,3.47-34.79,10.41s-12.04,16.57-12.04,28.91c0,6.68,1.48,12.4,4.43,17.15,2.95,4.75,6.97,8.67,12.04,11.76,5.07,3.08,10.7,5.46,16.86,7.13l15.61,4.05c7.83,1.93,14.13,4.72,18.89,8.38,4.75,3.66,7.13,8.38,7.13,14.16,0,6.3-2.73,11.34-8.19,15.13s-12.95,5.68-22.45,5.68c-7.84-.13-14.45-2.12-19.85-5.97s-9.06-8.41-10.98-13.68l-18.31,5.97c1.16,3.98,3.15,7.78,5.97,11.37,2.82,3.6,6.39,6.84,10.7,9.73,4.3,2.89,9.38,5.17,15.22,6.84,5.84,1.67,12.36,2.5,19.56,2.5,10.41,0,19.17-1.7,26.31-5.11,7.13-3.4,12.53-8.03,16.19-13.88,3.66-5.84,5.49-12.43,5.49-19.75,0-8.48-3.44-16.28-10.31-23.42-6.87-7.13-16.61-12.24-29.2-15.32h0Z"/>
        <rect class="cls-1" x="1655.7" y="274.18" width="18.89" height="134.9"/>
        <path class="cls-1" d="m1780.01,355.12h32.73c-.17,7.49-1.98,14.11-5.46,19.85-3.66,6.04-8.67,10.73-15.03,14.07s-13.59,5.01-21.68,5.01c-10.02,0-18.92-2.25-26.69-6.75-7.77-4.5-13.81-10.66-18.12-18.5-4.31-7.83-6.46-16.83-6.46-26.98s2.18-19.53,6.55-27.37c4.37-7.83,10.37-14,18.02-18.5,7.64-4.5,16.41-6.75,26.31-6.75,5.01,0,9.99.87,14.94,2.6,4.94,1.73,9.47,4.14,13.59,7.23,4.11,3.08,7.45,6.62,10.02,10.6l15.22-10.02c-3.47-5.4-8-10.18-13.59-14.36-5.59-4.17-11.82-7.45-18.69-9.83-6.88-2.38-14.04-3.57-21.49-3.57-13.62,0-25.73,2.99-36.33,8.96s-18.89,14.2-24.86,24.67-8.96,22.58-8.96,36.33,2.99,25.47,8.96,35.94,14.26,18.69,24.86,24.67c10.6,5.97,22.71,8.96,36.33,8.96,11.95,0,22.48-2.44,31.61-7.32,9.12-4.88,16.29-11.76,21.49-20.62,5.06-8.62,7.65-18.71,7.79-30.25h.01v-13.88h-51.07v15.8h0Z"/>
        <polygon class="cls-1" points="1950.37 274.18 1950.37 377.48 1874.04 274.18 1854.59 274.18 1854.59 409.08 1873.48 409.08 1873.48 304.82 1950.37 409.08 1969.44 409.08 1969.44 274.18 1950.37 274.18"/>
      </g>
    </g>
    <path class="cls-1" d="m393.02,67.43C349.53,23.95,291.72,0,230.23,0S110.91,23.95,67.43,67.43C23.95,110.92,0,168.73,0,230.23s23.95,119.31,67.43,162.79c43.48,43.49,101.3,67.43,162.79,67.43s119.3-23.95,162.79-67.43c43.49-43.48,67.43-101.3,67.43-162.79s-23.95-119.3-67.43-162.79Zm-170.67,377.12c-114.63-4.16-206.6-98.7-206.6-214.33S107.72,20.05,222.35,15.9v428.65ZM238.1,15.9c112.8,4.09,203.66,95.71,206.53,208.81h-206.53V15.9Zm0,428.65v-46.6h125.65c-34.75,27.72-78.26,44.89-125.65,46.6Zm141.55-60.6h-141.55v-64.65h187.21c-11.15,24.32-26.71,46.23-45.67,64.65Zm51.82-79.53h-193.36v-65.71h206.43c-.9,23.01-5.44,45.11-13.07,65.71Z"/>
  </g>
</svg>