<?xml version="1.0" encoding="UTF-8"?>
<svg id="Layer_2" data-name="Layer 2" xmlns="http://www.w3.org/2000/svg" viewBox="0 0 500 500">
  <defs>
    <style>
      .cls-1 {
        fill: #fff;
        stroke-width: 0px;
      }
    </style>
  </defs>
  <g id="Layer_1-2" data-name="Layer 1">
    <path class="cls-1" d="m426.78,73.22C379.56,26,316.78,0,250,0S120.44,26,73.22,73.22C26,120.44,0,183.22,0,250s26,129.56,73.22,176.78c47.22,47.22,110,73.22,176.78,73.22s129.56-26,176.78-73.22c47.22-47.22,73.22-110,73.22-176.78s-26-129.56-73.22-176.78Zm-185.31,409.56c-124.69-4.49-224.4-106.99-224.4-232.78S116.78,21.71,241.47,17.22v465.57Zm17.06-465.57c122.02,4.4,220.12,102.64,224.26,224.73h-224.26V17.22Zm0,465.57v-49.85h135.67c-37.58,29.67-84.52,48.01-135.67,49.85Zm154.02-65.96h-154.02v-71.32h203.99c-12.1,26.87-29.14,51.03-49.97,71.32Zm56.5-87.44h-210.52v-71.33h224.26c-.84,24.97-5.62,48.96-13.74,71.33Z"/>
  </g>
</svg>