<svg viewBox="0 0 730.3 321" xmlns="http://www.w3.org/2000/svg"><g fill="#535d51"><path d="m385 18.6h11.4v69.1h-11.4z"/><path d="m421.5 61.9c0-4.7 1-8.3 3.1-10.7 2-2.5 4.9-3.7 8.6-3.7 2.2 0 4.1.4 5.7 1.3s2.9 2.4 3.8 4.5 1.3 5.2 1.3 9.1v25.2h11v-27.8c0-5.3-.7-9.6-2.2-13-1.5-3.3-3.6-5.8-6.4-7.3-2.8-1.6-6.2-2.4-10.1-2.4s-7.2 1-10.1 2.9c-1.9 1.3-3.5 3-4.8 5.1l-.5-6.8h-10.4v49.3h11v-25.8z" fill-rule="evenodd"/><path d="m489.6 77.7c-1.6.9-3.6 1.3-6.2 1.3s-4.5-.6-6.5-1.9c-1.9-1.3-3.4-2.8-4.4-4.6l-9.6 4.2c1 2.4 2.6 4.5 4.5 6.4 2 1.8 4.3 3.2 7.1 4.2s5.8 1.5 9.1 1.5 7-.6 9.9-1.8 5.2-2.9 6.9-5.2c1.7-2.2 2.5-4.8 2.5-7.8s-.5-4.2-1.5-6.3-2.5-4-4.5-5.6c-2-1.7-4.7-2.9-7.9-3.7l-5.8-1.4c-2.1-.5-3.7-1.2-4.8-2s-1.7-1.7-1.7-2.7c0-1.7.6-3 1.9-4 1.3-.9 3-1.4 5.2-1.4s4.3.4 6.1 1.3 3.1 2.1 3.8 3.8l9.2-4.1c-.7-2.2-2-4.1-3.8-5.7s-4-2.9-6.6-3.8-5.3-1.3-8.3-1.3c-6 0-10.6 1.3-13.8 4s-4.8 6.5-4.8 11.4 1.3 6.3 4 8.9c2.6 2.6 6.3 4.5 10.9 5.7l4.6 1.3c2.2.5 3.9 1.2 5 2s1.8 2 1.8 3.5-.8 2.8-2.3 3.7z" fill-rule="evenodd"/><path d="m523 80.4c1.3 2.1 3 3.8 4.9 5.2 3 2.1 6.6 3.2 10.7 3.2s8.4-1.1 11.7-3.2 5.9-5.2 7.8-9c1.9-3.9 2.8-8.4 2.8-13.6s-.9-9.8-2.8-13.7c-1.9-3.8-4.5-6.8-7.8-9-3.3-2.1-7.2-3.2-11.7-3.2s-7.7 1.1-10.7 3.2c-2 1.4-3.6 3.2-5 5.4l-.6-7.4h-10.4v69.1h11v-26.9zm6.2-31.2c2-1.3 4.2-2 6.7-2s5.1.7 7.1 2 3.6 3.2 4.8 5.5c1.2 2.4 1.7 5.1 1.7 8.2s-.6 5.8-1.8 8.2-2.8 4.2-4.9 5.6c-2 1.4-4.4 2-7 2s-4.7-.7-6.7-2c-1.9-1.4-3.4-3.2-4.5-5.6s-1.6-5.1-1.6-8.2.5-5.8 1.6-8.2 2.6-4.2 4.6-5.5z" fill-rule="evenodd"/><path d="m576.3 28.9c1.8 0 3.3-.6 4.6-1.9s1.9-2.8 1.9-4.6-.6-3.3-1.9-4.5c-1.3-1.3-2.8-1.9-4.6-1.9s-3.3.6-4.6 1.9-1.9 2.8-1.9 4.5.6 3.3 1.9 4.6 2.8 1.9 4.6 1.9z" fill-rule="evenodd"/><path d="m570.8 38.3h11v49.3h-11z"/><g fill-rule="evenodd"><path d="m605.5 47.2v-8.9h-11v49.3h11v-26.4c0-3 .8-5.5 2.5-7.3 1.6-1.8 3.8-3.2 6.5-4s5.5-1.2 8.5-1.2v-10.6c-3.6 0-6.9.8-10.2 2.5-2.9 1.5-5.3 3.7-7.2 6.6s0 0 0 0z"/><path d="m639.2 85.5c3.7 2.2 8 3.3 12.8 3.3s7.1-.5 10-1.6 5.5-2.6 7.6-4.5c2.1-2 3.9-4.3 5.3-6.9l-9.8-4.1c-1.1 2.2-2.7 3.9-4.6 5.3s-4.5 2-7.5 2-5-.6-7.2-1.8-3.9-2.9-5.2-5.1c-1.1-1.9-1.7-4-1.9-6.5h37.2c0-5.9-1-11-3.1-15.3s-4.9-7.5-8.4-9.8c-3.6-2.3-7.5-3.4-11.9-3.4s-9.2 1.1-13 3.3-6.8 5.2-8.9 9.1-3.3 8.3-3.3 13.4 1.1 9.5 3.2 13.4 5.1 6.9 8.8 9.1zm2-33.7c1.3-1.7 3-3.1 4.9-4s4-1.3 5.9-1.3 3.9.4 5.7 1.3 3.3 2.2 4.5 4c1 1.4 1.5 3.2 1.7 5.3h-24.6c.2-2.1.8-3.8 1.9-5.3z"/><path d="m719.1 18.6v26.9c-1.3-2.1-3-3.8-4.9-5.2-3-2.1-6.6-3.2-10.7-3.2s-8.4 1.1-11.7 3.2-5.9 5.1-7.8 9c-1.9 3.8-2.8 8.4-2.8 13.7s.9 9.7 2.8 13.6 4.5 6.9 7.8 9 7.2 3.2 11.7 3.2 7.7-1.1 10.7-3.2c2-1.4 3.6-3.2 5-5.4l.4 7.4h10.5v-69zm-6.1 58.1c-1.9 1.4-4.2 2-6.7 2s-5-.7-7.1-2-3.7-3.2-4.8-5.6-1.8-5.1-1.8-8.2.7-5.8 1.8-8.2c1.2-2.4 2.8-4.2 4.8-5.5s4.4-2 7-2 4.8.7 6.8 2c1.9 1.3 3.4 3.2 4.5 5.5 1.1 2.4 1.6 5.1 1.6 8.2s-.5 5.8-1.6 8.2-2.6 4.2-4.5 5.6z"/><path d="m427.8 175.8h-31.3v-19.5h27.4v-10.3h-27.4v-18.3h31v-10.5h-42.5v69.1h42.8z"/><path d="m469.7 181.7c.3-.5.7-1 1-1.5l.3 6.1h10.2l.3-27c0-4.9-.8-9.1-2.3-12.6-1.6-3.5-3.9-6.2-7.1-8-3.2-1.9-7.2-2.8-12-2.8s-6.9.6-9.6 1.7-4.9 2.6-6.6 4.5-3.1 3.9-4.2 6.1l9.7 3.6c1.3-2.1 2.8-3.6 4.5-4.6 1.8-1 3.9-1.5 6.2-1.5s4.6.6 6.2 1.8c1.5 1.2 2.7 3 3.3 5.2.4 1.2.6 2.6.8 4.1h-12.5c-6.2 0-11 1.3-14.5 4-3.4 2.7-5.2 6.6-5.2 11.7s1.6 8.5 4.9 11.2c3.3 2.6 7.8 4 13.8 4s10.2-1.9 12.9-5.8zm-20.4-9.6c0-2.2.9-4 2.7-5.2s4.9-1.8 9.3-1.8h9.2v.8c0 2.3-.5 4.4-1.5 6.2s-2.4 3.3-4.3 4.4-4 1.7-6.5 1.7-4.9-.5-6.5-1.6c-1.5-1.1-2.3-2.6-2.3-4.5z"/><path d="m492.2 136.9v49.3h11v-26.4c0-3 .8-5.5 2.5-7.3 1.6-1.8 3.8-3.2 6.5-4s5.5-1.2 8.5-1.2v-10.6c-3.6 0-6.9.8-10.2 2.5-2.9 1.5-5.3 3.7-7.3 6.6v-8.9h-11.1z"/><path d="m557.6 183.8-4-8.4c-1 .7-1.9 1.2-2.7 1.5s-1.5.4-2.2.4c-2.1 0-3.7-.6-4.8-1.8s-1.6-2.9-1.6-5.2v-23.9h13.3v-9.5h-13.3v-15.4h-11v15.4h-8.2v9.5h8.2v25.9c0 4.9 1.4 8.6 4.1 11.2s6.7 3.9 11.9 3.9 3.4-.3 5.1-.9 3.4-1.5 5.1-2.7z"/><path d="m577.4 160.5c0-4.7 1-8.3 3-10.8s4.9-3.7 8.6-3.7c2.1 0 4 .4 5.6 1.3s2.9 2.4 3.8 4.5 1.4 5.2 1.4 9.1v25.2h11v-27.8c0-5.3-.7-9.6-2.2-13s-3.6-5.8-6.5-7.3-6.2-2.4-10.1-2.4-7.2 1-10.1 2.9c-1.8 1.2-3.3 2.8-4.6 4.8v-26.3h-11.1v69.1h11.1v-25.7s0 0 0 0z"/><path d="m424.7 220.2c-5.2-2.9-11.2-4.4-18-4.4h-21.7v69.1h21.7c6.8 0 12.8-1.5 18-4.4 5.2-3 9.3-7 12.3-12.2s4.5-11.2 4.5-17.8-1.5-12.8-4.5-18-7.1-9.3-12.3-12.2zm3.4 39.6c-1.2 2.9-2.8 5.4-4.9 7.6s-4.6 3.9-7.4 5.1-5.9 1.8-9.1 1.8h-10.3v-47.7h10.3c3.2 0 6.3.6 9.1 1.8s5.3 2.9 7.4 5.1 3.8 4.7 4.9 7.6c1.2 2.9 1.8 6 1.8 9.4s-.6 6.5-1.8 9.4z"/><path d="m494 247.6c-2.1-4.3-4.9-7.5-8.4-9.8-3.6-2.3-7.5-3.4-11.9-3.4s-9.2 1.1-13 3.3-6.8 5.2-8.9 9.1c-2.2 3.9-3.3 8.4-3.3 13.4s1.1 9.5 3.2 13.4 5.1 6.9 8.8 9.1 8 3.3 12.8 3.3 7.1-.5 10-1.6c2.9-1 5.5-2.6 7.6-4.5 2.1-2 3.9-4.3 5.3-6.9l-9.8-4.1c-1.1 2.2-2.7 3.9-4.6 5.3-2 1.4-4.5 2-7.5 2s-5-.6-7.2-1.8-3.9-2.9-5.2-5.1c-1.1-1.9-1.8-4-1.9-6.5h37.2c0-5.9-1-11-3.1-15.3zm-31.6 1.5c1.3-1.7 3-3.1 4.9-4 2-.9 4-1.3 5.9-1.3s3.9.4 5.7 1.3 3.3 2.2 4.5 4c1 1.4 1.5 3.2 1.7 5.3h-24.6c.2-2.1.8-3.8 1.9-5.3z"/><path d="m536.4 259.4c-2-1.7-4.7-2.9-7.9-3.7l-5.8-1.4c-2.1-.5-3.7-1.2-4.8-2s-1.7-1.7-1.7-2.7c0-1.7.6-3 1.9-4 1.3-.9 3-1.4 5.2-1.4s4.3.4 6.1 1.3 3.1 2.2 3.8 3.8l9.2-4.1c-.7-2.2-2-4.1-3.8-5.7s-4-2.9-6.6-3.8c-2.5-.9-5.3-1.3-8.3-1.3-6 0-10.6 1.4-13.8 4-3.2 2.7-4.8 6.5-4.8 11.4s1.3 6.3 4 8.9c2.6 2.6 6.3 4.5 10.9 5.7l4.6 1.3c2.2.5 3.9 1.2 5 2 1.2.8 1.8 2 1.8 3.5s-.8 2.8-2.3 3.7-3.6 1.3-6.2 1.3-4.5-.6-6.5-1.9c-1.9-1.3-3.4-2.8-4.4-4.6l-9.6 4.2c1 2.4 2.6 4.6 4.5 6.4 2 1.8 4.3 3.2 7.1 4.2s5.8 1.5 9.1 1.5 7-.6 9.9-1.8 5.2-2.9 6.9-5.2c1.7-2.2 2.5-4.8 2.5-7.8s-.5-4.2-1.5-6.3-2.5-4-4.5-5.6z"/></g><path d="m551.6 235.6h11v49.3h-11z"/><path d="m557.1 213.3c-1.8 0-3.3.6-4.6 1.9s-1.9 2.8-1.9 4.5.6 3.3 1.9 4.6 2.8 1.9 4.6 1.9 3.3-.6 4.6-1.9 1.9-2.8 1.9-4.6-.6-3.3-1.9-4.5-2.8-1.9-4.6-1.9z" fill-rule="evenodd"/><path d="m610.8 243.5c-1.5-2.4-3.3-4.4-5.5-6-3-2.1-6.5-3.2-10.5-3.2s-8.4 1-11.7 3.2-5.9 5-7.8 8.8-2.8 8.2-2.8 13.3.9 9 2.8 12.7c1.9 3.6 4.5 6.5 7.8 8.5s7.2 3.1 11.7 3.1 7.5-1 10.5-3c2.2-1.5 4-3.4 5.5-5.7v4.8c0 3.7-.6 6.7-1.9 9.1s-3 4.1-5.2 5.3c-2.2 1.1-4.8 1.7-7.6 1.7s-5-.3-7.1-.8-3.9-1.1-5.5-1.8-2.8-1.3-3.7-1.7l-4.2 8.9c1.1.7 2.5 1.5 4.4 2.3s4.3 1.5 7.1 2.1 5.9.9 9.4.9c5.1 0 9.5-1 13.3-3s6.8-5 8.9-8.9 3.2-8.7 3.2-14.2v-44.2h-11v7.9s0 0 0 0zm-2 23.7c-1.1 2.3-2.5 4.1-4.4 5.4s-4.1 2-6.6 2-5-.7-7-2-3.6-3.1-4.8-5.4-1.7-4.9-1.7-7.8.6-5.7 1.7-7.9 2.7-4 4.7-5.3 4.3-1.9 6.9-1.9 4.7.6 6.6 1.9 3.4 3.1 4.4 5.3c1.1 2.3 1.6 4.9 1.6 7.9s-.5 5.6-1.6 7.8z" fill-rule="evenodd"/><path d="m669.7 236.8c-2.8-1.6-6.2-2.4-10.1-2.4s-7.2 1-10.1 2.9c-1.9 1.3-3.5 3-4.8 5.1l-.5-6.9h-10.4v49.3h11v-25.7c0-4.7 1-8.3 3.1-10.8 2-2.5 4.9-3.7 8.6-3.7 2.2 0 4.1.4 5.7 1.3s2.9 2.4 3.8 4.5 1.3 5.2 1.3 9.1v25.2h11.1v-27.8c0-5.3-.7-9.6-2.2-13-1.5-3.3-3.6-5.8-6.4-7.3z" fill-rule="evenodd"/><path d="m205.7 6.1c-14-4-28.7-6.1-44-6.1s-30.3 2.2-44.3 6.2c-2.2.6-3.6 2.6-3.6 4.8v209.2c1.4-3.5 2.2-4.2 3-7.7 7.6-33.1 10.2-55.2 12.3-90 .1-1.7-.5-3.5-.7-5.2-12.8-10.4-5.5-28.4-1.2-38.5-.5 1.5.5 7.3 1.3 8.8.9 1.6 2.1 2.8 3.4 4.2 2.6 2.6 3.5 3.9 5 7 1.2 2.6 1.5 7.8 1.3 10.6-.1 2-.7 5.5-2.5 7.9 1 8-.1 13.9.2 21.9 2.5-9.2 5.4-17.2 9.6-25.7-.7-6.1.6-11.2 4.2-16 3-4.1 8-6.2 12.4-8.9 4.4-2.6 8.7-6.7 8.7-11.8 0 6.2.4 12.5-.2 18.7s-2.2 12.4-5.8 17.5c-3.1 4.4-7.7 7-13.5 7.7-6.1 13.9-11.1 24.2-13.7 39.2-.1.7-.2 1.4-.3 2.1 0-.1.1-.4.2-.5 1.5-4.5 4.4-5 8.3-5.7 4-.7 7.1.2 8.9 1.1.6.3 2.1 1.8 2.5 2.3 1.3 1.4 1.9 5-.3 6.9 1.5.4 1.9 1.6 1.8 3.2 0 2.1-2.1 3.7-4.3 3.1-1.1-.3-2-1.3-2.3-2.5-.3-1.7.5-3.1 1.8-3.7-.2-2-1.3-2.6-1.9-2.8-1.6-.4-5.2-.2-6.9.5-2 .9-4.3 2.4-5.9 4-2.5 2.5-3.8 5.9-4.1 9.4-.9 9.5-2.3 19-4.5 28.3 6.8-7.7 15.3-13.9 24.6-18.2 4.5-8.1 10.9-9.9 17.6-10.8 7.9-1.1 20.3 5.7 24.9 12.3-3.1-2-7-2.3-10.6-1.7-3.5.6-5.2 1.4-10.3 5.5-4.1 3.3-7.5 6.2-17.8 2.9-6.7 3.6-14.3 8.4-19.9 13.6-.8.7-1.9 1.9-2.6 2.5-3.3 2.6-6.5 7.4-8.3 11.2-1.7 3.7-5 8.7-6.7 12.4-2.2 4.8-4.3 9.5-7.4 13.9-.2.2-.3.5-.5.7v37.8h.2v22.5c0 2.2 1.5 4.2 3.6 4.8 14 4 28.8 6.1 44.1 6.1s30-2.1 44-6.1c2.1-.6 3.6-2.6 3.6-4.8v-299.3c0-2.2-1.5-4.2-3.6-4.8zm-83.2 110.8c2 0 3.7 1.6 3.7 3.7s-1.6 3.7-3.7 3.7-3.7-1.6-3.7-3.7 1.6-3.7 3.7-3.7zm29.7 18.9c-1.3 0-2.3-1-2.3-2.3s1-2.3 2.3-2.3 2.2 1 2.2 2.3-1 2.3-2.2 2.3zm5.1-6.1c-2 0-3.7-1.6-3.7-3.7s1.6-3.7 3.7-3.7 3.7 1.6 3.7 3.7-1.6 3.7-3.7 3.7zm1.5 77.3c-2.3 0-4.1-1.9-4.1-4.1s1.9-4.2 4.1-4.2 4.1 1.9 4.1 4.2-1.9 4.1-4.1 4.1zm9-3c-1.6 0-2.9-1.3-2.9-2.9s1.3-2.9 2.9-2.9 2.9 1.3 2.9 2.9-1.3 2.9-2.9 2.9z" fill-rule="evenodd"/><path d="m88.5 16.7c-52.6 26.3-88.7 80.7-88.7 143.5s35.9 116.9 88.3 143.3c3.3 1.7 7.3-.8 7.3-4.5v-96c.1 0 .1-.4.1-.4v-39.4-3.7-18.4-28s.2-92 .2-92c0-3.7-3.9-6.2-7.3-4.5zm-1.4 279.6c-47.8-50.3-27.4-105.2-18.6-130.2.2-.6.9-.4.8.2-4.2 50.3 12.2 81.4 20.8 128.3.3 1.7-1.8 2.9-3 1.6z" fill-rule="evenodd"/><path d="m233.3 16.7c-3.3-1.7-7.2.8-7.2 4.5v96c-.1 0-.1.4-.1.4v39.4 22s0 0 0 0v28s-.2 92-.2 92c0 3.7 3.9 6.2 7.2 4.5 52.6-26.3 88.7-80.7 88.7-143.5s-35.9-116.9-88.3-143.3 0 0 0 0zm19.5 137.4c-.2.6-.8.5-.8-.2 4.2-50.3-12.2-81.4-20.8-128.3-.3-1.7 1.8-2.9 3-1.7 47.8 50.4 27.4 105.2 18.6 130.2z" fill-rule="evenodd"/></g></svg>