<?xml version="1.0" encoding="UTF-8"?>
<svg id="Layer_2" data-name="Layer 2" xmlns="http://www.w3.org/2000/svg" viewBox="0 0 730.29 321.05">
  <defs>
    <style>
      .cls-1 {
        fill: #194f72;
        stroke-width: 0px;
      }
    </style>
  </defs>
  <g id="Layer_1-2" data-name="Layer 1">
    <g>
      <rect class="cls-1" x="385.21" y="18.56" width="11.44" height="69.06"/>
      <path class="cls-1" d="m421.71,61.87c0-4.67,1.02-8.25,3.06-10.75,2.04-2.5,4.9-3.72,8.58-3.65,2.17,0,4.06.43,5.67,1.28,1.61.86,2.86,2.35,3.75,4.49.89,2.14,1.33,5.18,1.33,9.13v25.25h11.05v-27.82c0-5.33-.74-9.65-2.22-12.97-1.48-3.32-3.62-5.77-6.41-7.35-2.8-1.58-6.17-2.37-10.11-2.37s-7.24.97-10.06,2.91c-1.9,1.31-3.5,3.02-4.81,5.13l-.52-6.85h-10.36v49.33h11.05v-25.75Z"/>
      <path class="cls-1" d="m489.83,77.7c-1.55.89-3.6,1.33-6.17,1.33-2.37,0-4.52-.63-6.46-1.87-1.94-1.25-3.4-2.79-4.39-4.64l-9.57,4.24c1.05,2.43,2.57,4.55,4.54,6.36,1.97,1.81,4.34,3.21,7.1,4.19,2.76.99,5.79,1.48,9.08,1.48,3.68,0,6.97-.61,9.86-1.83,2.89-1.22,5.18-2.94,6.86-5.18,1.68-2.23,2.52-4.83,2.52-7.79,0-2.1-.49-4.19-1.48-6.26-.99-2.07-2.5-3.95-4.54-5.62-2.04-1.68-4.67-2.91-7.89-3.7l-5.82-1.38c-2.11-.53-3.72-1.2-4.83-2.02-1.12-.82-1.68-1.73-1.68-2.71,0-1.71.62-3.04,1.87-4,1.25-.95,2.99-1.43,5.23-1.43s4.28.44,6.12,1.33c1.84.89,3.09,2.15,3.75,3.8l9.18-4.14c-.72-2.17-2.01-4.06-3.85-5.67-1.84-1.61-4.03-2.86-6.56-3.75-2.53-.89-5.31-1.33-8.34-1.33-5.99,0-10.57,1.35-13.76,4.05-3.19,2.7-4.78,6.51-4.78,11.44,0,3.35,1.31,6.33,3.95,8.93,2.63,2.6,6.28,4.49,10.95,5.67l4.64,1.28c2.17.53,3.85,1.2,5.03,2.02,1.18.82,1.78,1.99,1.78,3.5s-.77,2.81-2.32,3.7Z"/>
      <path class="cls-1" d="m523.22,80.4c1.34,2.09,2.96,3.82,4.88,5.2,2.99,2.14,6.56,3.21,10.7,3.21,4.47,0,8.37-1.07,11.69-3.21,3.32-2.14,5.92-5.15,7.79-9.03,1.87-3.88,2.81-8.42,2.81-13.61s-.94-9.82-2.81-13.66-4.47-6.84-7.79-8.98c-3.32-2.14-7.22-3.21-11.69-3.21-4.14,0-7.71,1.07-10.7,3.21-1.98,1.42-3.65,3.22-5.01,5.38l-.56-7.41h-10.36v69.06h11.05v-26.95Zm6.22-31.16c1.97-1.31,4.21-1.97,6.71-1.97,2.7,0,5.06.66,7.1,1.97,2.04,1.32,3.63,3.16,4.78,5.52,1.15,2.37,1.73,5.1,1.73,8.19s-.61,5.82-1.82,8.19c-1.22,2.37-2.85,4.23-4.88,5.57-2.04,1.35-4.38,2.02-7,2.02s-4.72-.67-6.66-2.02c-1.94-1.35-3.45-3.21-4.54-5.57-1.08-2.37-1.63-5.1-1.63-8.19s.54-5.82,1.63-8.19c1.09-2.37,2.62-4.21,4.59-5.52Z"/>
      <path class="cls-1" d="m576.49,28.92c1.78,0,3.31-.64,4.59-1.92s1.92-2.81,1.92-4.59-.64-3.29-1.92-4.54c-1.28-1.25-2.81-1.87-4.59-1.87s-3.31.63-4.59,1.87c-1.28,1.25-1.92,2.76-1.92,4.54s.64,3.3,1.92,4.59,2.81,1.92,4.59,1.92Z"/>
      <rect class="cls-1" x="570.97" y="38.29" width="10.95" height="49.33"/>
      <path class="cls-1" d="m605.69,47.17v-8.88h-11.05v49.33h11.05v-26.44c0-3.02.82-5.46,2.47-7.3,1.64-1.84,3.8-3.17,6.46-3.99,2.66-.82,5.51-1.23,8.53-1.23v-10.56c-3.55,0-6.95.84-10.21,2.52-2.9,1.49-5.32,3.69-7.25,6.57Z"/>
      <path class="cls-1" d="m639.38,85.49c3.72,2.2,7.97,3.31,12.77,3.31,3.75,0,7.09-.53,10.01-1.58,2.93-1.05,5.46-2.57,7.6-4.54,2.14-1.97,3.9-4.28,5.28-6.91l-9.77-4.14c-1.12,2.17-2.67,3.93-4.64,5.28-1.97,1.35-4.47,2.02-7.5,2.02-2.63,0-5.03-.59-7.2-1.78-2.17-1.18-3.91-2.88-5.23-5.08-1.11-1.86-1.75-4.02-1.92-6.46h37.24c0-5.92-1.04-11.01-3.11-15.29-2.07-4.27-4.88-7.55-8.44-9.82-3.55-2.27-7.53-3.4-11.94-3.4-4.87,0-9.19,1.1-12.97,3.31-3.78,2.2-6.76,5.25-8.93,9.13-2.17,3.88-3.26,8.35-3.26,13.42s1.07,9.54,3.21,13.42c2.14,3.88,5.06,6.92,8.78,9.13Zm2.02-33.64c1.31-1.74,2.96-3.06,4.93-3.95,1.97-.89,3.95-1.33,5.92-1.33s3.86.44,5.67,1.33c1.81.89,3.3,2.2,4.49,3.95.97,1.43,1.52,3.2,1.7,5.28h-24.61c.19-2.08.82-3.84,1.9-5.28Z"/>
      <path class="cls-1" d="m719.34,18.56v26.93c-1.34-2.08-2.96-3.8-4.88-5.18-2.99-2.14-6.56-3.21-10.7-3.21-4.47,0-8.37,1.07-11.69,3.21-3.32,2.14-5.92,5.13-7.79,8.98-1.87,3.85-2.81,8.4-2.81,13.66s.94,9.73,2.81,13.61c1.87,3.88,4.47,6.89,7.79,9.03,3.32,2.14,7.22,3.21,11.69,3.21,4.14,0,7.71-1.07,10.7-3.21,1.97-1.41,3.62-3.2,4.98-5.36l.4,7.38h10.46V18.56h-10.95Zm-6.17,58.15c-1.94,1.35-4.16,2.02-6.66,2.02-2.63,0-4.98-.67-7.05-2.02-2.07-1.35-3.68-3.21-4.83-5.57-1.15-2.37-1.76-5.1-1.82-8.19.06-3.09.67-5.82,1.82-8.19,1.15-2.37,2.75-4.21,4.78-5.52,2.04-1.31,4.37-1.97,7-1.97s4.82.66,6.76,1.97c1.94,1.32,3.45,3.16,4.54,5.52,1.08,2.37,1.63,5.1,1.63,8.19s-.54,5.82-1.63,8.19c-1.09,2.37-2.6,4.23-4.54,5.57Z"/>
      <polygon class="cls-1" points="428.03 175.81 396.66 175.81 396.66 156.27 424.08 156.27 424.08 146.01 396.66 146.01 396.66 127.66 427.73 127.66 427.73 117.21 385.21 117.21 385.21 186.26 428.03 186.26 428.03 175.81"/>
      <path class="cls-1" d="m469.86,181.68c.34-.49.66-1,.96-1.53l.33,6.12h10.16l.3-27.03c0-4.93-.77-9.14-2.32-12.63-1.55-3.49-3.93-6.17-7.15-8.04-3.22-1.87-7.24-2.81-12.03-2.81-3.75,0-6.95.56-9.62,1.68-2.66,1.12-4.87,2.61-6.61,4.49s-3.14,3.9-4.19,6.07l9.67,3.55c1.25-2.1,2.76-3.65,4.54-4.64,1.78-.99,3.85-1.48,6.22-1.48,2.57,0,4.62.61,6.17,1.82,1.54,1.22,2.66,2.96,3.35,5.23.37,1.21.63,2.58.8,4.09h-12.49c-6.18,0-11,1.35-14.45,4.04-3.45,2.7-5.18,6.61-5.18,11.74,0,4.8,1.63,8.52,4.88,11.15,3.26,2.63,7.84,3.95,13.76,3.95s10.23-1.92,12.92-5.77Zm-20.32-9.62c0-2.24.89-3.96,2.67-5.18,1.77-1.22,4.87-1.82,9.27-1.82h9.17v.79c0,2.3-.51,4.38-1.53,6.22-1.02,1.84-2.45,3.32-4.29,4.44-1.84,1.12-4.01,1.68-6.51,1.68-2.76,0-4.92-.54-6.46-1.63-1.55-1.08-2.32-2.58-2.32-4.49Z"/>
      <path class="cls-1" d="m492.44,136.94v49.33h11.05v-26.44c0-3.02.82-5.46,2.47-7.3,1.64-1.84,3.8-3.17,6.46-4,2.66-.82,5.51-1.23,8.53-1.23v-10.56c-3.55,0-6.95.84-10.21,2.52-2.9,1.49-5.32,3.69-7.25,6.56v-8.88h-11.05Z"/>
      <path class="cls-1" d="m557.85,183.8l-4.04-8.39c-.99.72-1.87,1.22-2.66,1.48-.79.26-1.51.4-2.17.4-2.11,0-3.7-.59-4.78-1.78-1.09-1.18-1.63-2.92-1.63-5.23v-23.87h13.32v-9.47h-13.32v-15.39h-10.95v15.39h-8.19v9.47h8.19v25.95c0,4.87,1.36,8.6,4.09,11.2,2.73,2.6,6.69,3.9,11.89,3.9,1.71,0,3.42-.31,5.13-.94,1.71-.62,3.42-1.53,5.13-2.71Z"/>
      <path class="cls-1" d="m577.58,160.52c0-4.67,1-8.25,3.01-10.75,2.01-2.5,4.88-3.72,8.63-3.65,2.1,0,3.96.43,5.57,1.28,1.61.85,2.88,2.35,3.8,4.49.92,2.14,1.38,5.18,1.38,9.13v25.25h11.05v-27.82c0-5.33-.74-9.65-2.22-12.97-1.48-3.32-3.63-5.77-6.46-7.35-2.83-1.58-6.18-2.37-10.06-2.37s-7.24.97-10.06,2.91c-1.81,1.24-3.35,2.85-4.64,4.82v-26.27h-11.05v69.06h11.05v-25.75Z"/>
      <path class="cls-1" d="m424.92,220.25c-5.23-2.93-11.23-4.39-18.01-4.39h-21.7v69.06h21.7c6.77,0,12.77-1.48,18.01-4.44,5.23-2.96,9.34-7.04,12.33-12.23,2.99-5.19,4.49-11.15,4.49-17.85s-1.5-12.76-4.49-17.96c-2.99-5.19-7.1-9.26-12.33-12.18Zm3.4,39.51c-1.18,2.89-2.83,5.43-4.93,7.6-2.11,2.17-4.57,3.86-7.4,5.08-2.83,1.22-5.85,1.82-9.08,1.82h-10.26v-47.75h10.26c3.22,0,6.25.61,9.08,1.82,2.83,1.22,5.29,2.91,7.4,5.08,2.1,2.17,3.75,4.7,4.93,7.6,1.18,2.89,1.78,6.02,1.78,9.37s-.59,6.48-1.78,9.37Z"/>
      <path class="cls-1" d="m494.17,247.62c-2.07-4.27-4.88-7.55-8.44-9.81-3.55-2.27-7.53-3.4-11.94-3.4-4.87,0-9.19,1.1-12.97,3.31-3.78,2.2-6.76,5.24-8.93,9.12-2.17,3.88-3.26,8.35-3.26,13.42s1.07,9.54,3.21,13.42c2.14,3.88,5.06,6.92,8.78,9.13,3.72,2.2,7.97,3.31,12.77,3.31,3.75,0,7.09-.53,10.01-1.58,2.93-1.05,5.46-2.57,7.6-4.54,2.14-1.97,3.9-4.28,5.28-6.9l-9.77-4.14c-1.12,2.17-2.67,3.93-4.64,5.28-1.97,1.35-4.47,2.02-7.5,2.02-2.63,0-5.03-.59-7.2-1.77-2.17-1.18-3.91-2.88-5.23-5.08-1.11-1.86-1.75-4.02-1.92-6.46h37.24c0-5.92-1.04-11.01-3.11-15.29Zm-31.52,1.53c1.31-1.74,2.96-3.06,4.93-3.95,1.97-.89,3.95-1.33,5.92-1.33s3.86.44,5.67,1.33c1.81.89,3.3,2.2,4.49,3.95.97,1.43,1.52,3.2,1.7,5.28h-24.61c.19-2.08.82-3.84,1.9-5.28Z"/>
      <path class="cls-1" d="m536.64,259.41c-2.04-1.68-4.67-2.91-7.89-3.7l-5.82-1.38c-2.11-.53-3.72-1.2-4.83-2.02-1.12-.82-1.68-1.73-1.68-2.71,0-1.71.62-3.04,1.87-3.99,1.25-.95,2.99-1.43,5.23-1.43s4.28.44,6.12,1.33c1.84.89,3.09,2.15,3.75,3.8l9.18-4.14c-.72-2.17-2.01-4.06-3.85-5.67-1.84-1.61-4.03-2.86-6.56-3.75-2.53-.89-5.31-1.33-8.34-1.33-5.99,0-10.57,1.35-13.76,4.04-3.19,2.7-4.78,6.51-4.78,11.44,0,3.35,1.31,6.33,3.95,8.93,2.63,2.6,6.28,4.49,10.95,5.67l4.64,1.28c2.17.53,3.85,1.2,5.03,2.02,1.18.82,1.78,1.99,1.78,3.5s-.77,2.81-2.32,3.7c-1.55.89-3.6,1.33-6.17,1.33-2.37,0-4.52-.63-6.46-1.87-1.94-1.25-3.4-2.8-4.39-4.64l-9.57,4.24c1.05,2.43,2.57,4.55,4.54,6.36,1.97,1.81,4.34,3.21,7.1,4.19,2.76.99,5.79,1.48,9.08,1.48,3.68,0,6.97-.61,9.86-1.83,2.89-1.22,5.18-2.94,6.86-5.18,1.68-2.24,2.52-4.83,2.52-7.79,0-2.11-.49-4.19-1.48-6.26-.99-2.07-2.5-3.95-4.54-5.62Z"/>
      <rect class="cls-1" x="551.83" y="235.59" width="10.95" height="49.33"/>
      <path class="cls-1" d="m557.35,213.29c-1.78,0-3.31.63-4.59,1.87-1.28,1.25-1.92,2.76-1.92,4.54s.64,3.31,1.92,4.59c1.28,1.28,2.81,1.92,4.59,1.92s3.31-.64,4.59-1.92c1.28-1.28,1.92-2.81,1.92-4.59s-.64-3.29-1.92-4.54c-1.28-1.25-2.81-1.87-4.59-1.87Z"/>
      <path class="cls-1" d="m611.02,243.52c-1.47-2.43-3.29-4.42-5.48-5.96-2.99-2.11-6.49-3.16-10.5-3.16-4.47,0-8.37,1.05-11.69,3.16-3.32,2.11-5.92,5.03-7.79,8.78-1.87,3.75-2.81,8.19-2.81,13.32,0,4.8.94,9.03,2.81,12.68,1.87,3.65,4.47,6.49,7.79,8.53,3.32,2.04,7.22,3.06,11.69,3.06,4.01,0,7.51-1,10.5-3.01,2.19-1.46,4.01-3.37,5.48-5.69v4.85c0,3.68-.63,6.71-1.87,9.08-1.25,2.37-2.99,4.13-5.23,5.28-2.24,1.15-4.77,1.73-7.6,1.73-2.63,0-5-.26-7.1-.79-2.11-.53-3.93-1.13-5.48-1.82-1.55-.69-2.78-1.27-3.7-1.73l-4.24,8.88c1.05.72,2.53,1.48,4.44,2.27,1.91.79,4.26,1.48,7.05,2.07,2.79.59,5.93.89,9.42.89,5.06,0,9.5-1,13.32-3.01,3.81-2.01,6.77-4.97,8.88-8.88,2.11-3.91,3.16-8.66,3.16-14.25v-44.2h-11.05v7.93Zm-1.97,23.68c-1.05,2.27-2.51,4.06-4.39,5.38-1.87,1.32-4.06,1.97-6.56,1.97-2.63,0-4.97-.66-7-1.97-2.04-1.31-3.63-3.11-4.78-5.38-1.15-2.27-1.73-4.88-1.73-7.84s.58-5.67,1.73-7.94c1.15-2.27,2.73-4.05,4.73-5.33,2.01-1.28,4.32-1.92,6.95-1.92s4.7.64,6.61,1.92c1.91,1.28,3.39,3.06,4.44,5.33,1.05,2.27,1.58,4.92,1.58,7.94s-.53,5.57-1.58,7.84Z"/>
      <path class="cls-1" d="m669.86,236.77c-2.8-1.58-6.17-2.37-10.11-2.37s-7.24.97-10.06,2.91c-1.9,1.31-3.5,3.02-4.81,5.13l-.52-6.86h-10.36v49.33h11.05v-25.75c0-4.67,1.02-8.25,3.06-10.75,2.04-2.5,4.9-3.72,8.58-3.65,2.17,0,4.06.43,5.67,1.28,1.61.85,2.86,2.35,3.75,4.49.89,2.14,1.33,5.18,1.33,9.13v25.25h11.05v-27.82c0-5.33-.74-9.65-2.22-12.97-1.48-3.32-3.62-5.77-6.41-7.35Z"/>
    </g>
    <g>
      <path class="cls-1" d="m205.89,6.11c-13.99-3.96-28.74-6.11-44-6.11s-30.28,2.16-44.34,6.2c-2.16.62-3.61,2.6-3.61,4.82v29.94s0,179.25,0,179.25c1.38-3.5,2.2-4.22,3.02-7.73,7.62-33.06,10.25-55.21,12.34-90.03.1-1.73-.54-3.5-.7-5.22-12.8-10.35-5.48-28.35-1.17-38.49-.48,1.52.53,7.35,1.33,8.78.94,1.64,2.07,2.84,3.42,4.21,2.57,2.6,3.52,3.86,5.01,6.98,1.22,2.55,1.48,7.77,1.25,10.59-.13,1.99-.67,5.48-2.54,7.9,1.03,7.98-.13,13.87.23,21.89,2.52-9.18,5.41-17.18,9.63-25.7-.75-6.14.63-11.23,4.16-16.02,3.03-4.12,7.99-6.22,12.37-8.9,4.37-2.64,8.68-6.67,8.72-11.79.04,6.22.4,12.46-.21,18.66-.6,6.22-2.21,12.43-5.78,17.55-3.06,4.37-7.74,7.02-13.5,7.73-6.11,13.85-11.08,24.22-13.72,39.16-.13.69-.25,1.38-.35,2.07.09-.12.12-.37.16-.5,1.47-4.46,4.37-5.03,8.33-5.67,4.05-.67,7.08.18,8.94,1.14.63.34,2.08,1.79,2.55,2.29,1.33,1.44,1.89,4.96-.26,6.93,1.48.38,1.85,1.6,1.79,3.2-.06,2.13-2.11,3.72-4.32,3.08-1.14-.34-2.02-1.32-2.27-2.48-.35-1.66.51-3.08,1.83-3.71-.23-1.99-1.32-2.65-1.89-2.81-1.64-.37-5.22-.22-6.86.5-1.95.94-4.32,2.42-5.85,3.96-2.46,2.51-3.78,5.88-4.09,9.37-.85,9.53-2.29,19.02-4.53,28.31,6.85-7.67,15.25-13.94,24.56-18.25,4.52-8.08,10.86-9.88,17.55-10.82,7.95-1.1,20.33,5.72,24.92,12.3-3.12-1.95-6.99-2.29-10.61-1.67-3.52.6-5.15,1.36-10.26,5.53-4.12,3.34-7.49,6.2-17.75,2.9-6.71,3.64-14.35,8.39-19.88,13.56-.82.73-1.88,1.95-2.61,2.54-3.33,2.62-6.55,7.37-8.34,11.25-1.72,3.69-5.04,8.65-6.73,12.45-2.18,4.81-4.28,9.53-7.36,13.87-.19.22-.35.47-.53.69v37.77h.18v22.55c.01,2.21,1.47,4.21,3.62,4.81,14.03,4,28.82,6.14,44.14,6.14s30.01-2.11,44.01-6.1c2.13-.62,3.58-2.61,3.58-4.81V10.94c0-2.24-1.45-4.24-3.59-4.82Zm-83.23,110.84c2.02,0,3.67,1.64,3.67,3.67s-1.64,3.67-3.67,3.67-3.67-1.64-3.67-3.67,1.64-3.67,3.67-3.67Zm29.73,18.88c-1.25,0-2.26-1.01-2.26-2.26s1.01-2.26,2.26-2.26,2.24,1.01,2.24,2.26-1,2.26-2.24,2.26Zm5.13-6.17c-2.02,0-3.67-1.64-3.67-3.67s1.64-3.67,3.67-3.67,3.67,1.64,3.67,3.67-1.64,3.67-3.67,3.67Zm1.48,77.38c-2.29,0-4.13-1.86-4.13-4.15s1.85-4.15,4.13-4.15,4.13,1.86,4.13,4.15-1.85,4.15-4.13,4.15Zm9.02-3.03c-1.6,0-2.89-1.29-2.89-2.89s1.29-2.89,2.89-2.89,2.89,1.28,2.89,2.89-1.29,2.89-2.89,2.89Z"/>
      <path class="cls-1" d="m88.7,16.67C36.11,42.97,0,97.38,0,160.2s35.92,116.89,88.27,143.28c3.31,1.69,7.26-.78,7.26-4.5l.15-95.97v-.37l.06-39.36v-3.68l.04-18.36h0s.03-28.03.03-28.03l.15-92.01c0-3.72-3.91-6.2-7.26-4.53Zm-1.35,279.6c-47.82-50.33-27.42-105.22-18.59-130.19.22-.63.85-.45.81.21-4.21,50.26,12.24,81.41,20.76,128.34.31,1.66-1.8,2.87-2.98,1.64Z"/>
      <path class="cls-1" d="m233.51,16.68c-3.31-1.69-7.24.78-7.24,4.5l-.15,95.99v.35l-.07,39.38h0v3.67l-.03,18.36v.03l-.04,28-.13,92.03c0,3.72,3.91,6.19,7.24,4.52,52.6-26.3,88.71-80.71,88.71-143.53s-35.92-116.89-88.29-143.28Zm19.51,137.4c-.21.63-.85.45-.79-.21,4.21-50.26-12.24-81.41-20.77-128.33-.29-1.67,1.82-2.89,2.98-1.66,47.82,50.35,27.43,105.22,18.59,130.19Z"/>
    </g>
  </g>
</svg>