<?xml version="1.0" encoding="UTF-8"?>
<svg id="Layer_1" data-name="Layer 1" xmlns="http://www.w3.org/2000/svg" viewBox="0 0 146.67 146.64">
  <defs>
    <style>
      .cls-1 {
        fill: none;
        stroke: #000;
      }
    </style>
  </defs>
  <path class="cls-1" d="m145.66,103.35c-.58,11.67-3.25,22-11.76,30.52-8.51,8.55-18.85,11.21-30.52,11.76-12.02.68-48.06.68-60.09,0-11.67-.58-21.97-3.25-30.52-11.76-8.55-8.51-11.21-18.85-11.76-30.52-.68-12.02-.68-48.06,0-60.09.58-11.67,3.22-22,11.76-30.52C21.32,4.23,31.66,1.56,43.29,1.01c12.02-.68,48.06-.68,60.09,0,11.67.58,22,3.25,30.52,11.76,8.55,8.51,11.21,18.85,11.76,30.52.68,12.02.68,48.03,0,60.06Zm-12.61-30.03c0-10.59.88-33.34-2.92-42.93-2.57-6.4-7.47-11.31-13.84-13.84-9.55-3.77-32.34-2.92-42.93-2.92s-33.34-.88-42.93,2.92c-6.4,2.57-11.31,7.47-13.84,13.84-3.77,9.55-2.92,32.34-2.92,42.93s-.88,33.34,2.92,42.93c2.57,6.4,7.47,11.31,13.84,13.84,9.55,3.77,32.34,2.92,42.93,2.92s33.34.88,42.93-2.92c6.4-2.57,11.31-7.47,13.84-13.84,3.8-9.55,2.92-32.34,2.92-42.93Zm-22.36,0c0,20.67-16.67,37.34-37.34,37.34s-37.34-16.67-37.34-37.34,16.67-37.34,37.34-37.34,37.34,16.67,37.34,37.34Zm-13.06,0c0-13.39-10.89-24.28-24.28-24.28s-24.28,10.89-24.28,24.28,10.92,24.28,24.28,24.28,24.28-10.89,24.28-24.28Zm14.59-47.58c-4.81,0-8.71,3.9-8.71,8.71s3.87,8.71,8.71,8.71,8.71-3.87,8.71-8.71-3.9-8.71-8.71-8.71Z"/>
</svg>